<?xml version="1.0" encoding="UTF-8" standalone="no"?>
<svg
   xmlns:dc="http://purl.org/dc/elements/1.1/"
   xmlns:cc="http://creativecommons.org/ns#"
   xmlns:rdf="http://www.w3.org/1999/02/22-rdf-syntax-ns#"
   xmlns:svg="http://www.w3.org/2000/svg"
   xmlns="http://www.w3.org/2000/svg"
   xmlns:sodipodi="http://sodipodi.sourceforge.net/DTD/sodipodi-0.dtd"
   xmlns:inkscape="http://www.inkscape.org/namespaces/inkscape"
   inkscape:export-ydpi="96"
   inkscape:export-xdpi="96"
   inkscape:export-filename="/Users/k/Desktop/marcot/my-new-website/src/images/mountain.png"
   inkscape:version="1.0beta2 (2b71d25, 2019-12-03)"
   sodipodi:docname="mountain.svg"
   id="svg839"
   version="1.1"
   viewBox="0 0 512 512.00102">
  <metadata
     id="metadata845">
    <rdf:RDF>
      <cc:Work
         rdf:about="">
        <dc:format>image/svg+xml</dc:format>
        <dc:type
           rdf:resource="http://purl.org/dc/dcmitype/StillImage" />
      </cc:Work>
    </rdf:RDF>
  </metadata>
  <defs
     id="defs843" />
  <sodipodi:namedview
     inkscape:current-layer="svg839"
     inkscape:window-maximized="0"
     inkscape:window-y="23"
     inkscape:window-x="0"
     inkscape:cy="387.97885"
     inkscape:cx="336.49742"
     inkscape:zoom="1.0683572"
     showgrid="false"
     id="namedview841"
     inkscape:window-height="647"
     inkscape:window-width="1117"
     inkscape:pageshadow="2"
     inkscape:pageopacity="0"
     guidetolerance="10"
     gridtolerance="10"
     objecttolerance="10"
     borderopacity="1"
     inkscape:document-rotation="0"
     bordercolor="#666666"
     pagecolor="#ffffff" />
  <path
     sodipodi:nodetypes="ssccccccccccccccccccssssccssccscscscccssscssscccccssssssssccccccsscccccccccccccccscccccccccssscccccccccccscccsccsscccccsscccccccssccccssssccsccsccsscsccccccccccccccccscccccssccc"
     inkscape:connector-curvature="0"
     d="m 236.3125,58.65625 c -30.32422,0 -55,24.671875 -55,55 0,13.32422 4.76562,25.55078 12.67578,35.07813 -6.17578,-0.26563 -12.30859,0.54296 -18.14062,2.33984 l -15.30469,-7.55078 c -26.5,-13.06641 -58.69141,-2.14063 -71.757814,24.35937 l -34.570312,70.10157 c -4.992188,10.11718 -5.710938,21.55859 -2.035156,32.22265 3.679687,10.66406 11.304687,19.23048 21.46875,24.12109 l 10.839843,5.21094 c -5.640625,19.375 -3.437498,40.3242 6.550781,58.38282 l -0.882812,0.88281 c 0,0.004 -0.0078,0.008 -0.0078,0.008 l -0.01172,0.0117 -48.121094,48.12109 c -0.05859,0.0586 -0.121094,0.10547 -0.179687,0.16016 l -24.25,24.25 c -3.902344,3.90625 -3.902344,10.23828 0,14.14453 l 45.960937,45.95703 c 0.191406,0.19531 0.394531,0.3711 0.601563,0.54297 H 10 c -5.523438,0 -10,4.47656 -10,10 0,5.52344 4.476562,10 10,10 h 96 c 9.56641,0 18.58984,-3.69922 25.40625,-10.41406 l 72.78906,-71.73828 C 206.71484,427.36702 210.04687,426 213.58203,426 h 104.29688 c 22.99609,0 45.27734,-9.55469 61.1289,-26.21484 l 69.79297,-73.35157 c 2.14453,-2.2539 5.16016,-3.54687 8.26953,-3.54687 h 44.28907 c 0,0 11.57664,0.2884 10.64062,-9.9961 -0.92482,-10.16152 -4.47656,-9.99996 -10,-10 h -44.92969 c -8.5625,0 -16.85547,3.55469 -22.75781,9.75782 L 369,381.29297 V 249.98828 h 1 c 16.54297,0 30,-13.45703 30,-30 0,-16.54297 -13.45703,-30 -30,-30 h -1 V 136 c 0,-5.52344 -4.47656,-10 -10,-10 -5.52344,0 -10,4.47656 -10,10 v 53.98828 h -59.65234 l -40.60157,-19.24609 c -0.25781,-0.15625 -0.51952,-0.3086 -0.79297,-0.44531 l -4.34374,-2.14063 c 26.89062,-3.58203 47.70312,-26.64844 47.70312,-54.5 0,-30.328125 -24.67188,-55 -55,-55 z m 0,20 c 19.30078,0 35,15.699219 35,35 0,19.29687 -15.69922,35 -35,35 -19.29688,0 -35,-15.70313 -35,-35 0,-19.300781 15.70312,-35 35,-35 z m -99.13086,79.3457 c 4.88955,0.0416 9.84229,1.15515 14.51367,3.45899 l 3.32422,1.64062 c -4.60937,4.29688 -8.53516,9.47266 -11.48437,15.44922 l -8.85938,17.96484 -30.7539,-14.11328 2.80078,-5.67187 c 5.88476,-11.93799 17.96346,-18.83475 30.45898,-18.72852 z m 54.75,10.66602 c 4.8892,0.042 9.84229,1.1571 14.51367,3.46094 l 31.75781,15.66015 c 0.33205,0.21094 0.67969,0.41016 1.04297,0.58203 l 36.34375,17.22657 -4.49218,20.00781 -40.41797,-19.16406 c -0.0625,-0.0273 -0.12891,-0.0508 -0.19141,-0.0781 -0.0937,-0.0469 -0.17969,-0.10547 -0.27344,-0.14844 l -22.14453,-10.85937 c -4.96094,-2.42969 -10.94922,-0.37891 -13.38281,4.57812 -2.42969,4.96094 -0.38281,10.94922 4.57812,13.38282 l 13.14454,6.4414 L 186.64844,272 H 119.75 l 41.72266,-84.60547 c 5.88756,-11.93798 17.96437,-18.83393 30.45898,-18.72656 z m -96.857421,31.67969 30.750001,14.11328 -30.957032,62.77344 -2.351563,3.97265 -10.199219,-4.90625 C 77,273.74609 73.011719,269.26172 71.085938,263.68359 c -1.921876,-5.57422 -1.546876,-11.5625 1.0625,-16.85547 z m 200.027341,9.64062 H 370 c 5.51172,0 10,4.48438 10,10 0,5.51172 -4.48438,10 -10,10 h -79.38672 z m -64.67968,18.46484 43.39062,20.57032 c 0.34766,0.16797 0.70703,0.30078 1.07031,0.42578 0.0625,0.0195 0.125,0.0352 0.1836,0.0547 0.14843,0.0469 0.29297,0.0977 0.4414,0.13671 0.0664,0.0195 0.13672,0.0273 0.20313,0.043 0.0742,0.0195 0.14453,0.043 0.21875,0.0625 0.16797,0.0352 0.33984,0.0547 0.50781,0.082 0.15625,0.0273 0.30859,0.0586 0.46484,0.0781 0.41016,0.0508 0.82032,0.082 1.22657,0.082 h 0.043 H 349 V 397.94922 C 339.53906,403.16406 328.81641,406 317.87891,406 H 277.32422 C 274,389.67187 262.69141,376.21487 247.66797,369.89062 V 306.08203 C 247.66797,287.28906 232.375,272 213.58203,272 h -4.63672 z M 109.37109,292 h 78.11329 l -10,20 h -12.02735 c -8.49219,0 -16.47656,3.30859 -22.48047,9.3125 -4.85937,4.85937 -7.94922,11.01562 -8.95312,17.6875 h -29.56641 c -4.2539,-12.51953 -3.99219,-26.125 0.81641,-38.54297 0.35547,-0.48828 0.68359,-0.99609 0.95312,-1.55859 0.39453,-0.82031 0.65625,-1.66797 0.81641,-2.51953 0.70703,-1.48047 1.48047,-2.94532 2.32812,-4.37891 z m 100.47657,0 h 3.73437 c 7.76563,0 14.08594,6.32031 14.08594,14.08203 v 11.75 l -23.22266,6.24219 c -1.72265,-2.98438 -4.0664,-5.5625 -6.85156,-7.5625 z m -44.39063,40.00391 h 18.13281 c 2.2461,0 4.07813,1.83203 4.07813,4.08203 v 79.91797 c 0,0.64062 0.0664,1.26562 0.17969,1.875 l -70.48047,69.46093 C 114.31641,490.34375 110.27734,492 106,492 H 77.085938 c 0.203124,-0.17578 0.40625,-0.35156 0.601562,-0.54297 8.367188,-8.36719 12.972656,-19.48828 12.972656,-31.32031 0,-5.03125 -0.839844,-9.92969 -2.4375,-14.54297 l 50.292964,-50.29687 c 9.76955,-9.77344 15.15235,-22.76172 15.15235,-36.58204 v -14.92187 c 0,-3.14844 1.22656,-6.10938 3.45312,-8.33594 2.22657,-2.23047 5.1875,-3.45312 8.33594,-3.45312 z m 62.21094,6.53906 V 366 h -20 V 343.91797 Z M 113.65234,359 h 20.00782 c -0.0664,7.83594 -2.95313,15.22266 -8.1875,21 l -14.14063,-14.14453 c 1.63672,-1.94922 2.42578,-4.40625 2.32031,-6.85547 z M 97.21875,380.02734 111.35938,394.16797 77.199219,428.32812 63.058594,414.1875 Z M 207.66797,386 h 20.66406 c 13.03906,0 24.16016,8.35937 28.28516,20 h -43.03516 -5.91406 z m -158.76172,42.32031 14.636719,14.63672 c 4.589843,4.58984 7.117187,10.6875 7.117187,17.17969 0,2.98047 -0.535156,5.88281 -1.558594,8.59375 L 38.800781,438.42578 Z"
     id="path833" />
  <path
     id="path835"
     d="m359 103.171875c2.628906 0 5.210938-1.070313 7.070312-2.929687 1.859376-1.871094 2.929688-4.441407 2.929688-7.070313 0-2.632813-1.070312-5.210937-2.929688-7.070313-1.859374-1.871093-4.441406-2.929687-7.070312-2.929687s-5.210938 1.058594-7.070312 2.929687c-1.859376 1.859376-2.929688 4.4375-2.929688 7.070313 0 2.628906 1.070312 5.199219 2.929688 7.070313 1.859374 1.859374 4.441406 2.929687 7.070312 2.929687zm0 0" />
  <path
     id="path837"
     d="m452 120c33.082031 0 60-26.917969 60-60 0-33.085938-26.917969-60-60-60-33.085938 0-60 26.914062-60 60 0 33.082031 26.914062 60 60 60zm0-100c22.054688 0 40 17.945312 40 40s-17.945312 40-40 40-40-17.945312-40-40 17.945312-40 40-40zm0 0" />
</svg>
